<?xml version="1.0" encoding="UTF-8"?>
<svg width="229.00248px" height="241.002136px" viewBox="0 0 229.00248 241.002136" version="1.1" xmlns="http://www.w3.org/2000/svg" xmlns:xlink="http://www.w3.org/1999/xlink">
    <title>floppy</title>
    <g id="Page-1" stroke="none" stroke-width="1" fill="none" fill-rule="evenodd">
        <g id="Large" transform="translate(-46.4985, -400.4987)" stroke="#FACC15" stroke-width="3">
            <g id="floppy" transform="translate(48, 402)">
                <path d="M1.58269385,1.2934407 C3.54951975,-0.679312581 8.53552143,0.191413695 8.53552143,0.191413695 L218.359791,0.191413695 C218.359791,0.191413695 223.271322,-0.254124792 224.848373,1.27370081 C226.222478,2.60491453 225.9842,6.90817805 225.9842,6.90817805 L225.9842,232.546511 C225.9842,232.546511 226.176972,235.985061 225.09436,237.074998 C224.006577,238.17014 220.561288,237.988772 220.561288,237.988772 L10.0080871,237.988772 L0.190986948,227.895922 L0.190986948,10.1611786 C0.190986948,10.1611786 -0.760142091,3.64333652 1.58269385,1.2934407 L1.58269385,1.2934407 Z" id="rect2826"></path>
                <path d="M53,156 L53,237 L172,237 L172,156 L53,156 Z M71.8927616,161.991693 L100.863077,161.991693 L100.863077,224.760285 L71.8927616,224.760285 L71.8927616,161.991693 Z" id="rect3607"></path>
                <rect id="rect3601" x="26" y="5" width="178" height="133" rx="20"></rect>
                <rect id="rect3603" x="8" y="17" width="13" height="10"></rect>
                <rect id="rect3605" x="209" y="17" width="13" height="10"></rect>
            </g>
        </g>
    </g>
</svg>