<?xml version="1.0" encoding="UTF-8"?>
<svg width="307px" height="224px" viewBox="0 0 307 224" version="1.1" xmlns="http://www.w3.org/2000/svg" xmlns:xlink="http://www.w3.org/1999/xlink">
    <title>2</title>
    <g id="Page-1" stroke="none" stroke-width="1" fill="none" fill-rule="evenodd">
        <g id="Large" transform="translate(-1213, -407)" fill="#FACC15" fill-rule="nonzero">
            <g id="mac-xl" transform="translate(1213, 407)">
                <path d="M305.617117,224 C306.539039,224 307,223.538382 307,222.615147 L307,222.615147 L307,202.880989 L306.654279,202.534776 L291.442567,178.646058 L291.442567,164.451314 L299.048424,164.451314 C299.739865,164.451314 300.085586,164.105101 300.085586,163.412674 L300.085586,163.412674 L300.085586,9.69397218 C300.085586,7.1550747 299.106044,4.90468833 297.146959,2.94281295 C295.187876,0.980937691 292.940691,0 290.405405,0 L290.405405,0 L14.1745495,0 C11.6392643,0 9.33445946,0.980937691 7.26013514,2.94281295 C5.18581081,4.90468833 4.14864865,7.1550747 4.14864865,9.69397218 L4.14864865,9.69397218 L4.14864865,163.412674 C4.14864865,164.105101 4.49436937,164.451314 5.18581081,164.451314 L5.18581081,164.451314 L13.1373874,164.451314 L13.1373874,178.646058 L0,202.534776 L0,222.615147 C0,223.538382 0.345720721,224 1.03716216,224 L1.03716216,224 L305.617117,224 Z M298.011261,162.374034 L6.56869369,162.374034 L6.56869369,9.69397218 C6.56869369,7.84750129 7.37537538,6.11643483 8.98873874,4.5007728 C10.6021021,2.88511077 12.3307057,2.07727975 14.1745495,2.07727975 L14.1745495,2.07727975 L290.405405,2.07727975 C292.249249,2.07727975 293.977853,2.88511077 295.591216,4.5007728 C297.20458,6.11643483 298.011261,7.84750129 298.011261,9.69397218 L298.011261,9.69397218 L298.011261,162.374034 Z M290.405405,10.7326121 C291.096847,10.7326121 291.442567,10.3863988 291.442567,9.69397218 C291.442567,9.0015456 291.096847,8.6553323 290.405405,8.6553323 L290.405405,8.6553323 L14.1745495,8.6553323 C13.4831081,8.6553323 13.1373874,9.0015456 13.1373874,9.69397218 C13.1373874,10.3863988 13.4831081,10.7326121 14.1745495,10.7326121 L14.1745495,10.7326121 L290.405405,10.7326121 Z M184.960585,146.794436 C185.882507,146.794436 186.343468,146.448223 186.343468,145.755796 L186.343468,145.755796 L186.343468,18.3493045 C186.343468,17.6568779 185.882507,17.3106646 184.960585,17.3106646 L184.960585,17.3106646 L14.1745495,17.3106646 C13.4831081,17.3106646 13.1373874,17.6568779 13.1373874,18.3493045 C13.1373874,19.2725399 13.4831081,19.7341577 14.1745495,19.7341577 L14.1745495,19.7341577 L19.7060811,19.7341577 L19.7060811,26.3122102 L14.1745495,26.3122102 C13.4831081,26.3122102 13.1373874,26.6584235 13.1373874,27.3508501 C13.1373874,28.0432767 13.4831081,28.38949 14.1745495,28.38949 L14.1745495,28.38949 L19.7060811,28.38949 L19.7060811,34.9675425 L14.1745495,34.9675425 C13.4831081,34.9675425 13.1373874,35.3137558 13.1373874,36.0061824 C13.1373874,36.9294178 13.4831081,37.3910355 14.1745495,37.3910355 L14.1745495,37.3910355 L19.7060811,37.3910355 L19.7060811,43.6228748 L14.1745495,43.6228748 C13.4831081,43.6228748 13.1373874,43.9690881 13.1373874,44.6615147 C13.1373874,45.3539413 13.4831081,45.7001546 14.1745495,45.7001546 L14.1745495,45.7001546 L19.7060811,45.7001546 L19.7060811,52.6244204 L14.1745495,52.6244204 C13.4831081,52.6244204 13.1373874,52.9706337 13.1373874,53.6630603 C13.1373874,54.3554869 13.4831081,54.7017004 14.1745495,54.7017004 L14.1745495,54.7017004 L19.7060811,54.7017004 L19.7060811,61.2797527 L14.1745495,61.2797527 C13.4831081,61.2797527 13.1373874,61.6259663 13.1373874,62.3183923 C13.1373874,63.0108195 13.4831081,63.3570325 14.1745495,63.3570325 L14.1745495,63.3570325 L19.7060811,63.3570325 L19.7060811,70.2812983 L14.1745495,70.2812983 C13.4831081,70.2812983 13.1373874,70.6275113 13.1373874,71.3199385 C13.1373874,72.0123645 13.4831081,72.3585781 14.1745495,72.3585781 L14.1745495,72.3585781 L19.7060811,72.3585781 L19.7060811,145.755796 C19.7060811,146.448223 20.0518018,146.794436 20.7432432,146.794436 L20.7432432,146.794436 L184.960585,146.794436 Z M290.405405,19.7341577 C291.096847,19.7341577 291.442567,19.2725399 291.442567,18.3493045 C291.442567,17.6568779 291.096847,17.3106646 290.405405,17.3106646 L290.405405,17.3106646 L193.949325,17.3106646 C193.257883,17.3106646 192.912162,17.6568779 192.912162,18.3493045 C192.912162,19.2725399 193.257883,19.7341577 193.949325,19.7341577 L193.949325,19.7341577 L290.405405,19.7341577 Z M183.923423,144.717156 L21.7804054,144.717156 L21.7804054,19.7341577 L183.923423,19.7341577 L183.923423,144.717156 Z M171.823198,138.139104 C173.206081,138.139104 174.473724,137.562081 175.626126,136.408037 C176.778529,135.253992 177.35473,133.984544 177.35473,132.599691 L177.35473,132.599691 L177.35473,31.8516229 C177.35473,30.2359608 176.778529,28.9088099 175.626126,27.87017 C174.473724,26.8315302 173.206081,26.3122102 171.823198,26.3122102 L171.823198,26.3122102 L33.8806306,26.3122102 C32.4977477,26.3122102 31.2301051,26.8315302 30.0777027,27.87017 C28.9253003,28.9088099 28.3490991,30.2359608 28.3490991,31.8516229 L28.3490991,31.8516229 L28.3490991,132.599691 C28.3490991,133.984544 28.9253003,135.253992 30.0777027,136.408037 C31.2301051,137.562081 32.4977477,138.139104 33.8806306,138.139104 L33.8806306,138.139104 L171.823198,138.139104 Z M290.405405,28.38949 C291.096847,28.38949 291.442567,28.0432767 291.442567,27.3508501 C291.442567,26.6584235 291.096847,26.3122102 290.405405,26.3122102 L290.405405,26.3122102 L193.949325,26.3122102 C193.257883,26.3122102 192.912162,26.6584235 192.912162,27.3508501 C192.912162,28.0432767 193.257883,28.38949 193.949325,28.38949 L193.949325,28.38949 L290.405405,28.38949 Z M171.823198,136.061824 L33.8806306,136.061824 C31.5758258,136.061824 30.4234234,134.907779 30.4234234,132.599691 L30.4234234,132.599691 L30.4234234,31.8516229 C30.4234234,29.5435343 31.5758258,28.38949 33.8806306,28.38949 L33.8806306,28.38949 L171.823198,28.38949 C174.128003,28.38949 175.280405,29.5435343 175.280405,31.8516229 L175.280405,31.8516229 L175.280405,132.599691 C175.280405,134.907779 174.128003,136.061824 171.823198,136.061824 L171.823198,136.061824 Z M290.405405,37.0448223 C291.096847,37.0448223 291.442567,36.698609 291.442567,36.0061824 C291.442567,35.3137558 291.096847,34.9675425 290.405405,34.9675425 L290.405405,34.9675425 L193.949325,34.9675425 C193.257883,34.9675425 192.912162,35.3137558 192.912162,36.0061824 C192.912162,36.698609 193.257883,37.0448223 193.949325,37.0448223 L193.949325,37.0448223 L290.405405,37.0448223 Z M290.405405,46.0463679 C291.096847,46.0463679 291.442567,45.7001546 291.442567,45.007728 C291.442567,44.0844925 291.096847,43.6228748 290.405405,43.6228748 L290.405405,43.6228748 L193.949325,43.6228748 C193.257883,43.6228748 192.912162,44.0844925 192.912162,45.007728 C192.912162,45.7001546 193.257883,46.0463679 193.949325,46.0463679 L193.949325,46.0463679 L290.405405,46.0463679 Z M290.405405,54.7017004 C291.096847,54.7017004 291.442567,54.3554869 291.442567,53.6630603 C291.442567,52.9706337 291.096847,52.6244204 290.405405,52.6244204 L290.405405,52.6244204 L193.949325,52.6244204 C193.257883,52.6244204 192.912162,52.9706337 192.912162,53.6630603 C192.912162,54.3554869 193.257883,54.7017004 193.949325,54.7017004 L193.949325,54.7017004 L290.405405,54.7017004 Z M290.405405,63.3570325 C291.096847,63.3570325 291.442567,63.0108195 291.442567,62.3183923 C291.442567,61.6259663 291.096847,61.2797527 290.405405,61.2797527 L290.405405,61.2797527 L193.949325,61.2797527 C193.257883,61.2797527 192.912162,61.6259663 192.912162,62.3183923 C192.912162,63.0108195 193.257883,63.3570325 193.949325,63.3570325 L193.949325,63.3570325 L290.405405,63.3570325 Z M290.405405,72.3585781 C291.096847,72.3585781 291.442567,72.0123645 291.442567,71.3199385 C291.442567,70.6275113 291.096847,70.2812983 290.405405,70.2812983 L290.405405,70.2812983 L193.949325,70.2812983 C193.257883,70.2812983 192.912162,70.6275113 192.912162,71.3199385 C192.912162,72.0123645 193.257883,72.3585781 193.949325,72.3585781 L193.949325,72.3585781 L290.405405,72.3585781 Z M279.342342,118.404946 C280.725225,118.404946 281.992868,117.827924 283.14527,116.673879 C284.297673,115.519835 284.873874,114.250387 284.873874,112.865534 L284.873874,112.865534 L284.873874,106.287481 C284.873874,104.902628 284.297673,103.633179 283.14527,102.479134 C281.992868,101.32509 280.725225,100.748068 279.342342,100.748068 L279.342342,100.748068 L266.204955,100.748068 C263.208709,100.748068 261.480105,102.248326 261.019144,105.248841 L261.019144,105.248841 L226.792793,105.248841 C226.101351,105.248841 225.755631,105.595054 225.755631,106.287481 L225.755631,106.287481 L225.755631,112.865534 C225.755631,113.55796 226.101351,113.904173 226.792793,113.904173 L226.792793,113.904173 L261.019144,113.904173 C261.480105,116.904688 263.208709,118.404946 266.204955,118.404946 L266.204955,118.404946 L279.342342,118.404946 Z M279.342342,116.327666 L266.204955,116.327666 C265.513514,116.327666 264.822072,115.981453 264.130631,115.289026 C263.439189,114.5966 263.093469,113.788769 263.093469,112.865534 C263.093469,112.173106 262.632508,111.826893 261.710586,111.826893 L261.710586,111.826893 L227.829955,111.826893 L227.829955,107.326121 L261.710586,107.326121 C262.632508,107.326121 263.093469,106.979907 263.093469,106.287481 C263.093469,105.595054 263.439189,104.902628 264.130631,104.210201 C264.822072,103.517774 265.513514,103.171561 266.204955,103.171561 L266.204955,103.171561 L279.342342,103.171561 C280.264264,103.171561 281.070946,103.517774 281.762387,104.210201 C282.453829,104.902628 282.79955,105.595054 282.79955,106.287481 L282.79955,106.287481 L282.79955,112.865534 C282.79955,115.173622 281.647147,116.327666 279.342342,116.327666 L279.342342,116.327666 Z M289.368244,177.607419 L15.2117117,177.607419 L15.2117117,164.451314 L289.368244,164.451314 L289.368244,177.607419 Z M304.579955,221.576507 L2.07432432,221.576507 L2.07432432,203.227202 L14.865991,180.030912 L289.713964,180.030912 L304.579955,203.227202 L304.579955,221.576507 Z M215.72973,203.919629 C216.190691,203.919629 216.536412,203.804225 216.766892,203.573415 C217.227853,203.111798 217.227853,202.765585 216.766892,202.534776 L216.766892,202.534776 L210.198198,187.301391 C210.198198,186.839773 209.852477,186.608964 209.161036,186.608964 L209.161036,186.608964 L20.7432432,186.608964 C20.0518018,186.608964 19.7060811,186.839773 19.7060811,187.301391 L19.7060811,187.301391 L13.1373874,202.534776 C12.9069069,202.765585 12.9069069,203.111798 13.1373874,203.573415 C13.3678679,203.804225 13.7135886,203.919629 14.1745495,203.919629 L14.1745495,203.919629 L215.72973,203.919629 Z M292.47973,203.919629 C293.401652,203.919629 293.862613,203.573415 293.862613,202.880989 C293.862613,202.65018 293.804993,202.534776 293.689752,202.534776 C293.574512,202.534776 293.516892,202.419372 293.516892,202.188562 L293.516892,202.188562 L284.873874,186.955177 C284.643393,186.724369 284.297673,186.608964 283.836712,186.608964 L283.836712,186.608964 L233.361486,186.608964 C232.900525,186.608964 232.554805,186.724369 232.324324,186.955177 L232.324324,186.955177 L232.324324,187.993818 L241.313063,203.573415 C241.313063,203.804225 241.543544,203.919629 242.004505,203.919629 L242.004505,203.919629 L292.47973,203.919629 Z M214.001126,201.842349 L15.9031532,201.842349 L21.4346847,188.686244 L208.469594,188.686244 L214.001126,201.842349 Z M290.751126,201.842349 L242.695946,201.842349 L235.09009,188.686244 L283.14527,188.686244 L290.751126,201.842349 Z" id="2"></path>
            </g>
        </g>
    </g>
</svg>